<svg width="1440" height="923" viewBox="0 0 1440 923" fill="none" xmlns="http://www.w3.org/2000/svg">
<g clip-path="url(#clip0_108_47)">
<rect width="1440" height="923" fill="#F7F8F9"/>
<g opacity="0.1">
<path d="M224.556 421.654C321.443 361.96 385.634 266.845 436.05 192.143C522.562 63.9531 520.456 9.04834 565.536 0.880239C656.055 -15.5212 688.542 201.52 882.057 298.398C1081.12 398.052 1271.57 280.939 1315.12 359.318C1351.55 424.889 1262.77 586.973 1128.08 636.999C927.534 711.484 799.486 472.821 546.833 515.158C328.084 551.815 282.4 754.459 108.019 730.503C-24.1379 712.349 -134.46 577.196 -112.105 517.993C-88.841 456.374 60.9878 522.432 224.556 421.654Z" stroke="#0091FF" stroke-width="2" stroke-linecap="round" stroke-linejoin="round" stroke-dasharray="0 0.01"/>
<path d="M452.581 198.388C541.387 75.8055 536.134 19.8419 580.675 12.0434C670.367 -3.51232 703.085 208.941 893.256 303.882C1088.94 401.558 1275.69 287.457 1319.63 364.724C1357.57 431.424 1271.43 594.414 1138.33 644.159C940.563 717.979 812.746 479.297 559.844 520.29C343.652 555.987 297.351 754.845 125.406 731.856C-5.13246 714.507 -113.348 582.806 -93.3249 523.995C-77.7772 478.328 6.18716 499.727 115.089 471.747C153.263 461.937 194.598 445.988 237.053 419.786C271.33 398.623 301.864 373.614 329.116 347.262C379.799 298.164 418.814 244.999 452.581 198.388Z" stroke="#0091FF" stroke-width="2" stroke-linecap="round" stroke-linejoin="round" stroke-dasharray="0 0.01"/>
<path d="M469.14 204.653C560.099 87.7862 551.835 30.6551 595.839 23.2218C684.701 8.51621 717.655 216.38 904.478 309.386C1096.79 405.083 1279.88 293.976 1324.18 370.152C1363.62 437.98 1280.12 601.875 1148.6 651.34C953.619 724.494 825.912 485.056 572.884 525.442C359.143 559.558 312.334 755.251 142.82 733.227C13.9019 716.682 -92.2115 588.389 -74.5157 530.014C-60.6747 484.353 20.3135 502.594 127.553 472.115C165.479 461.336 206.863 444.343 249.574 417.939C284.284 396.461 315.496 371.62 343.33 346.033C395.014 298.35 434.311 249.402 469.14 204.653Z" stroke="#0091FF" stroke-width="2" stroke-linecap="round" stroke-linejoin="round" stroke-dasharray="0 0.01"/>
<path d="M485.74 210.872C578.677 99.8055 567.565 41.3134 611.047 34.3563C699.042 20.2768 732.266 223.773 915.747 314.842C1104.68 408.563 1284.15 300.436 1328.77 375.532C1369.74 444.492 1288.85 609.287 1158.93 658.474C966.717 730.963 839.19 491.146 585.965 530.547C374.736 563.413 327.356 755.611 160.277 734.552C32.9772 718.812 -71.0433 593.877 -55.6656 535.989C-43.5247 490.287 34.5028 505.371 140.064 472.438C177.752 460.678 219.174 442.651 262.141 416.042C297.283 394.255 329.175 369.581 357.586 344.76C410.272 298.488 449.739 253.895 485.74 210.872Z" stroke="#0091FF" stroke-width="2" stroke-linecap="round" stroke-linejoin="round" stroke-dasharray="0 0.01"/>
<path d="M502.386 217.134C597.078 111.921 583.35 52.087 626.299 45.5343C713.456 32.2331 746.922 231.209 927.058 320.343C1112.62 412.084 1288.5 306.927 1333.4 380.957C1375.91 451.048 1297.63 616.745 1169.29 665.651C979.859 737.473 852.515 497.287 599.094 535.694C390.377 567.325 342.423 756.016 177.777 735.921C52.0976 720.985 -49.8497 599.361 -36.7682 542.006C-26.3273 496.211 48.7505 508.153 152.616 472.804C190.079 460.055 231.523 441.004 274.748 414.19C310.323 392.091 342.895 367.584 371.886 343.528C425.575 298.672 465.095 258.566 502.386 217.134Z" stroke="#0091FF" stroke-width="2" stroke-linecap="round" stroke-linejoin="round" stroke-dasharray="0 0.01"/>
<path d="M519.076 223.389C615.261 124.045 599.181 62.8574 641.596 56.7047C727.914 44.1796 761.622 238.638 938.415 325.837C1120.6 415.599 1292.93 313.397 1338.07 386.372C1382.14 457.598 1306.45 624.193 1179.7 672.821C993.046 743.98 865.892 503.428 612.265 540.834C406.066 571.245 357.575 756.085 195.322 737.281C71.292 722.904 -28.633 604.787 -17.8278 548.015C-9.08468 502.078 63.0589 510.888 165.216 473.163C202.458 459.411 243.921 439.349 287.4 412.331C323.41 389.921 356.709 365.642 386.232 342.288C441.016 298.958 480.373 263.362 519.076 223.389Z" stroke="#0091FF" stroke-width="2" stroke-linecap="round" stroke-linejoin="round" stroke-dasharray="0 0.01"/>
<path d="M535.82 229.656C614.099 120.123 615.068 73.6407 656.947 67.8858C742.428 56.1435 776.378 246.08 949.826 331.341C1128.64 419.127 1297.44 319.867 1342.81 391.803C1388.44 464.16 1315.32 631.659 1190.16 680.005C1006.29 750.495 879.325 509.592 625.491 545.988C421.813 575.191 372.746 756.433 212.924 738.655C90.5147 725.037 -7.39663 610.179 1.16761 554.039C8.20181 507.905 77.431 513.592 177.868 473.536C214.898 458.768 256.373 437.707 300.11 410.485C336.55 387.764 370.538 363.664 400.633 341.064C456.428 299.169 489.042 260.355 535.82 229.656Z" stroke="#0091FF" stroke-width="2" stroke-linecap="round" stroke-linejoin="round" stroke-dasharray="0 0.01"/>
<path d="M552.625 235.861C629.531 129.435 631.014 84.359 672.359 79.0064C757.005 68.0446 791.194 253.459 961.299 336.785C1136.73 422.593 1302.04 326.261 1347.6 397.169C1394.81 470.658 1324.26 639.057 1200.68 687.125C1019.59 756.948 892.825 515.701 638.777 551.078C437.627 579.089 387.979 756.722 230.586 739.966C109.799 727.109 13.864 615.455 20.2226 559.998C25.5435 513.618 91.8739 516.188 190.582 473.843C227.405 458.048 268.884 436.003 312.879 408.576C349.753 385.542 384.422 361.62 415.094 339.775C471.902 299.315 503.52 263.577 552.625 235.861Z" stroke="#0091FF" stroke-width="2" stroke-linecap="round" stroke-linejoin="round" stroke-dasharray="0 0.01"/>
<path d="M569.483 242.133C645.015 138.817 647.016 95.148 687.823 90.191C771.637 80.014 806.06 260.904 972.823 342.296C1144.88 426.123 1306.72 332.708 1352.44 402.603C1401.25 477.216 1333.25 646.524 1211.26 694.311C1032.94 763.469 906.382 521.885 652.118 556.236C453.496 583.067 403.26 757.075 248.296 741.341C129.132 729.245 35.1283 620.753 39.3299 566.026C42.9154 519.35 106.369 518.807 203.346 474.218C239.968 457.382 281.449 434.362 325.701 406.734C363.005 383.388 398.359 359.645 429.607 338.554C487.426 299.527 518.046 266.863 569.483 242.133Z" stroke="#0091FF" stroke-width="2" stroke-linecap="round" stroke-linejoin="round" stroke-dasharray="0 0.01"/>
<path d="M586.403 248.341C660.564 148.132 663.079 105.874 703.35 101.315C786.332 91.9228 820.993 268.286 984.409 347.743C1153.09 429.591 1311.49 339.081 1357.35 407.972C1407.77 483.711 1342.3 653.926 1221.9 701.435C1046.36 769.928 920.006 528.017 665.519 561.329C469.433 586.996 418.606 757.368 266.073 742.656C148.529 731.32 56.4025 625.948 58.5 571.989C60.3303 524.974 120.931 521.319 216.176 474.532C252.601 456.639 294.077 432.661 338.585 404.828C376.324 381.17 412.36 357.605 444.184 337.268C503.01 299.676 532.64 270.084 586.403 248.341Z" stroke="#0091FF" stroke-width="2" stroke-linecap="round" stroke-linejoin="round" stroke-dasharray="0 0.01"/>
<path d="M602.378 254.619C675.169 157.519 678.2 116.672 717.932 112.509C800.084 103.902 834.979 275.738 995.05 353.258C1160.36 433.13 1315.33 345.512 1361.31 413.413C1413.36 490.272 1350.5 661.65 1231.59 708.63C1058.98 776.821 932.687 534.228 677.975 566.494C484.426 591.009 433.005 757.733 282.905 744.042C166.982 733.465 76.679 631.174 76.7276 578.021C76.7739 530.624 134.547 523.858 228.06 474.914C264.286 455.952 305.758 431.03 350.525 402.993C388.696 379.023 425.415 355.634 457.813 336.054C517.648 299.893 546.286 273.379 602.378 254.619Z" stroke="#0091FF" stroke-width="2" stroke-linecap="round" stroke-linejoin="round" stroke-dasharray="0 0.01"/>
<path d="M619.448 260.832C690.865 166.844 694.413 127.406 733.609 123.638C814.931 115.82 850.06 283.126 1006.79 358.711C1168.72 436.604 1320.29 351.869 1366.37 418.787C1420.06 496.762 1359.72 669.081 1242.38 715.759C1072.56 783.315 946.47 540.385 691.526 571.592C500.518 594.972 448.499 758.034 300.829 745.362C186.527 735.55 97.9834 636.3 96.0493 583.991C94.2786 536.167 149.252 526.29 241.036 475.232C277.071 455.188 318.536 429.332 363.559 401.095C402.161 376.812 439.559 353.599 472.54 334.774C533.377 300.045 561.026 276.608 619.448 260.832Z" stroke="#0091FF" stroke-width="2" stroke-linecap="round" stroke-linejoin="round" stroke-dasharray="0 0.01"/>
<path d="M635.591 267.1C705.635 176.22 709.702 138.195 748.356 134.821C828.852 127.794 864.213 290.567 1017.59 364.217C1176.15 440.13 1324.35 358.267 1370.5 424.218C1425.85 503.303 1368 676.566 1252.24 722.942C1085.21 789.859 959.327 546.607 704.151 576.747C515.685 599.003 463.063 758.393 317.826 746.733C205.142 737.689 118.299 641.452 114.44 590.013C110.817 541.733 163.026 528.734 253.088 475.603C288.924 454.464 330.385 427.69 375.663 399.249C414.7 374.655 452.779 351.618 486.336 333.547C548.178 300.249 574.84 279.89 635.591 267.1Z" stroke="#0091FF" stroke-width="2" stroke-linecap="round" stroke-linejoin="round" stroke-dasharray="0 0.01"/>
<path d="M652.854 273.322C721.527 185.549 726.11 148.939 764.227 145.956C843.895 139.723 879.485 297.963 1029.52 369.676C1184.71 443.613 1329.54 364.608 1375.75 429.601C1432.76 509.788 1377.4 684.001 1263.22 730.077C1098.98 796.359 973.312 552.796 717.895 581.853C531.979 603.003 478.75 758.705 335.946 748.061C224.879 739.782 139.669 646.535 133.955 595.991C128.44 547.224 177.909 531.09 266.258 475.929C301.899 453.679 343.354 426.002 388.891 397.354C428.358 372.45 467.117 349.591 501.257 332.277C564.099 300.407 589.774 283.127 652.854 273.322Z" stroke="#0091FF" stroke-width="2" stroke-linecap="round" stroke-linejoin="round" stroke-dasharray="0 0.01"/>
<path d="M672 276.032C736.67 193.905 742.15 159.648 779.204 157.093C858.049 151.656 893.864 305.358 1040.56 375.136C1192.37 447.095 1333.86 370.94 1380.11 434.985C1438.81 516.268 1385.91 691.438 1273.31 737.213C1111.86 802.854 986.404 558.996 730.744 586.959C547.38 607.017 493.54 759.022 353.171 749.388C243.724 741.877 160.082 651.602 152.573 601.967C145.119 552.691 191.886 533.406 278.535 476.256C313.978 452.88 355.43 424.314 401.223 395.462C441.125 370.244 480.562 347.56 515.283 331.004C578.383 300.914 603.234 286.696 666.959 279.784" stroke="#0091FF" stroke-width="2" stroke-linecap="round" stroke-linejoin="round" stroke-dasharray="0 0.01"/>
<path d="M689.534 280.16C752.824 201.129 758.814 168.282 795.316 166.113C873.337 161.473 909.382 310.636 1052.73 378.479C1201.16 448.459 1339.33 375.144 1385.6 438.249C1446 520.624 1395.55 696.752 1284.54 742.232C1125.88 807.232 1000.64 563.093 744.732 589.95C563.92 608.927 509.464 757.225 371.533 748.598C263.702 741.856 181.563 654.54 172.33 605.827C162.892 556.027 206.987 533.573 291.951 474.463C327.186 449.95 368.643 420.509 414.694 391.452C455.027 365.924 495.142 343.413 530.443 327.616C594.552 298.924 618.452 287.736 684.453 283.779" stroke="#0091FF" stroke-width="2" stroke-linecap="round" stroke-linejoin="round" stroke-dasharray="0 0.01"/>
<path d="M706.198 283.615C768.106 207.68 774.604 176.247 810.556 174.458C887.751 170.62 924.026 315.242 1064.03 381.15C1209.09 449.151 1343.95 378.667 1390.22 440.844C1452.33 524.297 1404.32 701.397 1294.89 746.582C1139.02 810.933 1014 566.527 757.848 592.266C579.591 610.181 524.516 754.756 389.021 747.138C282.806 741.166 202.111 656.802 191.213 609.013C179.737 558.68 221.198 533.028 304.491 471.999C339.519 446.334 380.982 416.029 427.292 386.772C468.057 360.931 508.847 338.594 544.732 323.553C609.85 296.262 632.791 288.109 701.076 287.109" stroke="#0091FF" stroke-width="2" stroke-linecap="round" stroke-linejoin="round" stroke-dasharray="0 0.01"/>
<path d="M723.017 286.996C783.541 214.157 790.549 184.137 825.947 182.73C902.325 179.695 938.821 319.775 1075.48 383.743C1217.16 449.767 1348.72 382.106 1394.99 443.364C1458.83 527.886 1413.25 705.965 1305.39 750.854C1152.31 814.561 1027.52 569.903 771.113 594.51C595.417 611.372 539.719 752.212 406.661 745.599C302.062 740.401 222.748 658.991 210.249 612.124C196.682 561.254 235.544 532.378 317.186 469.46C351.995 442.631 393.474 411.476 440.04 382.015C481.238 355.863 522.706 333.696 559.173 319.418C625.298 293.525 647.284 288.411 717.857 290.37" stroke="#0091FF" stroke-width="2" stroke-linecap="round" stroke-linejoin="round" stroke-dasharray="0 0.01"/>
<path d="M739.992 290.461C799.134 220.712 806.649 192.109 841.498 191.081C917.052 188.852 953.776 324.384 1087.09 386.417C1225.4 450.462 1353.68 385.613 1399.92 445.96C1465.51 531.545 1422.33 710.609 1316.05 755.202C1165.76 818.264 1041.2 573.371 784.538 596.829C611.405 612.655 555.078 749.751 424.46 744.14C321.475 739.716 243.485 661.263 229.443 615.316C213.732 563.911 250.031 531.776 330.035 467.001C364.623 438.996 406.124 407.002 452.946 377.334C494.579 350.871 536.722 328.878 573.77 315.359C640.906 290.866 661.934 288.794 734.801 293.716" stroke="#0091FF" stroke-width="2" stroke-linecap="round" stroke-linejoin="round" stroke-dasharray="0 0.01"/>
<path d="M756.127 293.928C813.884 227.27 821.907 200.081 856.202 199.431C930.94 198.013 967.881 328.992 1097.86 389.091C1232.79 451.157 1357.8 389.11 1404 448.557C1471.35 535.195 1430.56 715.254 1325.87 759.554C1178.36 821.966 1054.04 576.855 797.116 599.153C626.548 613.954 569.595 747.294 441.412 742.68C340.043 739.032 263.327 663.547 247.79 618.506C229.878 566.578 263.649 531.142 342.041 464.539C376.397 435.347 417.929 402.527 465.009 372.657C507.071 345.881 549.89 324.057 587.522 311.301C655.668 288.204 675.735 289.18 750.905 297.065" stroke="#0091FF" stroke-width="2" stroke-linecap="round" stroke-linejoin="round" stroke-dasharray="0 0.01"/>
<path d="M773.452 297.354C829.83 233.753 838.365 206.974 872.097 207.74C946 209.414 983.182 333.559 1109.81 391.723C1241.37 451.811 1363.12 392.56 1409.28 451.111C1478.4 538.788 1439.99 719.854 1336.87 763.862C1192.16 825.624 1068.08 580.311 810.886 601.431C642.883 615.225 585.297 744.797 459.556 741.182C359.801 738.31 284.308 665.804 267.33 621.654C247.164 569.223 278.44 530.446 355.238 462.036C389.351 431.646 430.923 398.011 478.261 367.936C520.758 340.849 564.25 319.195 602.468 307.2C671.618 285.499 690.727 289.531 768.2 300.38" stroke="#0091FF" stroke-width="2" stroke-linecap="round" stroke-linejoin="round" stroke-dasharray="0 0.01"/>
<path d="M790.971 300.792C845.961 240.278 855.02 214.897 888.178 216.056C961.237 218.608 998.667 338.136 1121.95 394.363C1250.14 452.472 1368.64 396.009 1414.74 453.674C1485.66 542.38 1449.6 724.463 1348.07 768.178C1206.14 829.29 1082.3 583.797 824.843 603.718C659.409 616.519 601.189 742.313 477.887 739.688C379.744 737.599 305.434 668.087 287.056 624.811C264.58 571.896 293.395 529.733 368.621 459.542C402.485 427.944 444.109 393.502 491.699 363.225C534.631 335.825 578.797 314.341 617.599 303.109C687.756 282.805 705.904 289.893 785.685 303.709" stroke="#0091FF" stroke-width="2" stroke-linecap="round" stroke-linejoin="round" stroke-dasharray="0 0.01"/>
<path d="M807.658 304.256C861.267 246.822 870.842 222.846 903.432 224.392C975.644 227.816 1013.32 342.731 1133.26 397.023C1258.07 453.153 1373.34 399.466 1419.38 456.258C1492.1 545.979 1458.38 729.088 1358.43 772.514C1219.29 832.971 1095.7 587.317 837.97 606.023C675.108 617.846 616.249 739.85 495.387 738.215C398.858 736.909 325.692 670.412 305.952 627.988C281.118 574.618 307.497 529.019 381.175 457.067C414.779 424.251 456.46 389.013 504.311 358.532C547.671 330.821 592.515 309.504 631.9 299.038C703.064 280.128 720.247 290.278 802.342 307.065" stroke="#0091FF" stroke-width="2" stroke-linecap="round" stroke-linejoin="round" stroke-dasharray="0 0.01"/>
<path d="M821.432 310.927C876.383 254.244 886.186 231.862 918.875 232.712C990.35 234.573 1028.17 347.309 1144.77 399.665C1266.2 453.82 1378.25 402.903 1424.2 458.825C1498.75 549.55 1467.36 733.697 1368.99 776.838C1232.63 836.636 1109.29 590.841 851.289 608.316C690.999 619.172 631.5 737.375 513.082 736.728C418.164 736.206 346.107 672.746 325.04 631.149C297.793 577.359 321.768 528.275 393.92 454.577C427.25 420.535 469.004 384.508 517.111 353.822C560.904 325.8 606.423 304.651 646.394 294.95C719.195 277.281 735.065 290.886 821.432 310.927Z" stroke="#0091FF" stroke-width="2" stroke-miterlimit="10" stroke-linecap="round" stroke-linejoin="round" stroke-dasharray="0 0.01"/>
<path d="M839.47 314.338C893.048 260.763 903.374 239.814 935.521 241.038C1006.18 243.727 1044.22 351.893 1157.47 402.315C1275.53 454.489 1384.36 406.335 1430.22 461.398C1506.62 553.111 1477.53 738.309 1380.74 781.161C1247.17 840.299 1124.08 594.388 865.808 610.611C708.09 620.519 647.949 734.909 531.975 735.242C438.667 735.511 367.693 675.108 345.328 634.313C315.621 580.139 337.214 527.515 407.867 452.091C440.91 416.812 482.749 380.009 531.112 349.119C575.337 320.784 621.532 299.799 662.085 290.866C735.883 274.61 750.772 291.312 839.47 314.338Z" stroke="#0091FF" stroke-width="2" stroke-miterlimit="10" stroke-linecap="round" stroke-linejoin="round" stroke-dasharray="0 0.01"/>
<path d="M856.68 317.778C908.887 267.313 919.738 247.798 951.337 249.391C1021.18 252.918 1059.44 356.507 1169.35 404.994C1284.03 455.19 1389.66 409.79 1435.42 463.999C1513.67 556.686 1486.88 742.95 1391.67 785.519C1260.88 843.995 1138.05 597.989 879.5 612.938C724.357 621.907 663.571 732.477 550.041 733.79C458.342 734.849 388.431 677.531 364.787 637.508C332.581 582.992 351.812 526.774 420.984 449.635C453.735 413.114 495.664 375.537 544.287 344.445C588.945 315.799 635.814 294.98 676.952 286.814C751.743 271.967 765.655 291.767 856.68 317.778Z" stroke="#0091FF" stroke-width="2" stroke-miterlimit="10" stroke-linecap="round" stroke-linejoin="round" stroke-dasharray="0 0.01"/>
<path d="M874.07 321.218C924.901 273.861 936.28 255.786 967.334 257.749C1036.37 262.11 1074.84 361.121 1181.41 407.673C1292.71 455.89 1395.14 413.237 1440.8 466.602C1520.92 560.247 1496.4 747.59 1402.78 789.872C1274.77 847.687 1152.2 601.612 893.371 615.263C740.807 623.311 679.371 730.049 568.288 732.336C478.199 734.188 409.329 679.982 384.429 640.704C349.676 585.891 366.566 526.022 434.285 447.181C466.724 409.41 508.762 371.07 557.641 339.774C602.732 310.815 650.274 290.161 691.998 282.762C767.782 269.322 780.716 292.224 874.07 321.218Z" stroke="#0091FF" stroke-width="2" stroke-miterlimit="10" stroke-linecap="round" stroke-linejoin="round" stroke-dasharray="0 0.01"/>
<path d="M890.631 324.672C940.092 280.425 951.994 263.789 982.5 266.117C1050.72 271.324 1089.41 365.75 1192.63 410.365C1300.56 456.603 1399.8 416.691 1445.35 469.218C1527.37 563.804 1505.09 752.24 1413.06 794.242C1287.83 851.392 1165.52 605.266 906.411 617.602C756.425 624.744 694.345 727.64 585.704 730.895C497.224 733.545 429.381 682.473 403.238 643.916C365.908 588.848 380.464 525.277 446.751 444.737C478.87 405.712 521.031 366.613 570.167 335.112C615.691 305.842 663.908 285.352 706.214 278.723C782.992 266.689 794.948 292.693 890.631 324.672Z" stroke="#0091FF" stroke-width="2" stroke-miterlimit="10" stroke-linecap="round" stroke-linejoin="round" stroke-dasharray="0 0.01"/>
<path d="M908.39 328.995C956.477 287.857 968.903 272.662 998.866 275.356C1066.28 281.413 1105.18 371.247 1205.06 413.924C1309.62 458.187 1405.67 421.005 1451.09 472.703C1535.02 568.216 1514.99 757.759 1424.54 799.48C1302.09 855.958 1180.04 609.82 920.655 620.812C773.244 627.058 710.512 726.104 604.317 730.324C517.449 733.776 450.622 685.865 423.249 647.992C383.303 592.722 395.541 525.39 460.418 443.166C492.205 402.88 534.496 363.026 583.888 331.321C629.844 301.74 678.735 281.413 721.629 275.551C799.402 264.924 810.377 294.029 908.39 328.995Z" stroke="#0091FF" stroke-width="2" stroke-miterlimit="10" stroke-linecap="round" stroke-linejoin="round" stroke-dasharray="0 0.01"/>
<path d="M926.313 338.301C973.029 300.272 985.978 286.523 1015.4 289.575C1081.99 296.489 1121.12 381.729 1217.65 422.469C1318.83 464.753 1411.71 430.298 1457 481.17C1542.86 577.592 1525.04 768.26 1436.18 809.701C1316.51 865.51 1194.73 619.38 935.058 629.005C790.226 634.37 726.845 729.555 623.096 734.736C537.836 738.995 472.02 694.269 443.421 657.053C400.832 601.628 410.756 530.483 474.25 446.576C505.687 405.026 548.126 364.423 597.774 332.514C644.163 302.622 693.729 282.455 737.209 277.365C815.974 268.141 825.973 300.352 926.313 338.301Z" stroke="#0091FF" stroke-width="2" stroke-miterlimit="10" stroke-linecap="round" stroke-linejoin="round" stroke-dasharray="0 0.01"/>
<path d="M943.382 347.664C988.724 312.743 1002.2 300.442 1031.07 303.853C1096.86 311.626 1136.2 392.263 1229.38 431.071C1327.19 471.374 1416.89 439.639 1462.06 489.695C1549.86 587.004 1534.24 778.812 1446.97 819.981C1330.08 875.114 1208.56 629.025 948.608 637.252C806.356 641.754 742.327 733.067 641.019 739.204C557.369 744.27 492.562 702.762 462.743 666.17C417.486 610.639 425.099 535.63 487.228 450.042C518.307 407.225 560.901 365.874 610.807 333.762C657.629 303.558 707.871 283.554 751.931 279.234C831.694 271.413 840.71 306.73 943.382 347.664Z" stroke="#0091FF" stroke-width="2" stroke-miterlimit="10" stroke-linecap="round" stroke-linejoin="round" stroke-dasharray="0 0.01"/>
<path d="M960.613 357.082C1004.58 325.271 1018.58 314.42 1046.91 318.187C1111.88 326.827 1151.44 402.858 1241.28 439.729C1335.71 478.054 1422.25 449.029 1467.28 498.275C1557.05 596.457 1543.6 789.422 1457.91 830.313C1343.8 884.77 1222.56 638.752 962.319 645.555C822.649 649.208 757.965 736.644 659.107 743.729C577.063 749.61 513.263 711.335 482.223 675.345C434.277 619.757 439.581 540.829 500.365 453.565C531.074 409.478 573.84 367.383 624.002 335.067C671.257 304.552 722.174 284.706 766.819 281.158C847.575 274.74 855.614 313.163 960.613 357.082Z" stroke="#0091FF" stroke-width="2" stroke-miterlimit="10" stroke-linecap="round" stroke-linejoin="round" stroke-dasharray="0 0.01"/>
<path d="M979.008 366.518C1021.61 337.816 1036.13 328.419 1063.91 332.539C1128.07 342.053 1167.77 413.642 1254.34 448.404C1345.32 484.933 1428.78 458.431 1473.66 506.872C1565.42 605.904 1554.13 800.043 1470.03 840.664C1358.7 894.44 1237.72 648.53 977.2 653.878C840.106 656.691 774.774 740.24 678.359 748.271C597.925 754.97 535.134 719.951 502.871 684.535C452.223 628.939 455.208 546.047 514.672 457.104C544.996 411.744 587.943 368.91 638.364 336.39C686.051 305.561 737.644 285.876 782.87 283.102C864.622 278.084 871.683 319.614 979.008 366.518Z" stroke="#0091FF" stroke-width="2" stroke-miterlimit="10" stroke-linecap="round" stroke-linejoin="round" stroke-dasharray="0 0.01"/>
<path d="M996.535 376.008C1037.76 350.415 1052.81 342.473 1080.04 346.943C1143.38 357.337 1183.31 424.306 1266.53 457.131C1354.14 491.684 1434.44 467.88 1479.17 515.525C1572.93 615.386 1563.78 810.718 1481.27 851.072C1372.71 904.165 1252 658.394 991.205 662.253C856.69 664.245 790.708 743.899 696.74 752.868C617.916 760.39 556.136 728.652 522.645 693.782C469.281 638.221 469.941 551.322 528.103 460.698C558.035 414.064 601.176 370.488 651.853 337.766C699.973 306.626 752.241 287.101 798.052 285.098C880.8 281.481 886.878 326.119 996.535 376.008Z" stroke="#0091FF" stroke-width="2" stroke-miterlimit="10" stroke-linecap="round" stroke-linejoin="round" stroke-dasharray="0 0.01"/>
<path d="M1014.2 385.55C1054.05 363.065 1069.62 356.582 1096.32 361.4C1158.84 372.681 1198.99 435.019 1278.87 465.911C1363.1 498.484 1440.25 477.373 1484.83 524.227C1580.61 624.895 1573.57 821.442 1492.66 861.526C1386.87 913.935 1266.43 668.34 1005.35 670.681C873.415 671.864 806.787 747.616 715.263 757.513C638.048 765.866 577.288 737.426 542.563 703.078C486.475 647.601 484.801 556.647 541.677 464.344C571.203 416.435 614.547 372.12 665.482 339.194C714.035 307.741 766.979 288.376 813.373 287.146C897.119 284.928 902.214 332.678 1014.2 385.55Z" stroke="#0091FF" stroke-width="2" stroke-miterlimit="10" stroke-linecap="round" stroke-linejoin="round" stroke-dasharray="0 0.01"/>
<path d="M1032 395.161C1070.48 375.785 1086.57 370.765 1112.73 375.927C1174.42 388.102 1214.8 445.802 1291.33 474.761C1372.19 505.355 1446.19 486.928 1490.61 532.999C1588.44 634.454 1583.5 832.232 1504.17 872.055C1401.15 923.77 1280.99 678.392 1019.63 679.177C890.271 679.564 822.998 751.407 733.916 762.232C658.313 771.418 598.58 746.296 562.612 712.443C503.795 657.09 499.772 562.047 555.385 468.061C584.491 418.874 628.054 373.822 679.245 340.691C728.229 308.927 781.851 289.719 828.829 289.265C913.569 288.443 917.686 339.304 1032 395.161Z" stroke="#0091FF" stroke-width="2" stroke-miterlimit="10" stroke-linecap="round" stroke-linejoin="round" stroke-dasharray="0 0.01"/>
<path d="M1048.91 404.709C1086.03 388.442 1102.63 384.885 1128.25 390.39C1189.12 403.467 1229.73 456.522 1302.92 483.546C1380.4 512.159 1451.25 496.417 1495.51 541.712C1595.4 643.923 1592.54 842.958 1514.81 882.516C1414.55 933.54 1294.66 688.423 1033.03 687.612C906.242 687.218 838.327 755.146 751.686 766.886C677.695 776.913 618.999 755.124 581.777 721.747C520.227 666.558 513.842 567.386 568.208 471.712C596.883 421.249 640.676 375.461 692.123 342.125C741.541 310.05 795.841 291.001 843.398 291.318C929.14 291.894 932.271 345.867 1048.91 404.709Z" stroke="#0091FF" stroke-width="2" stroke-miterlimit="10" stroke-linecap="round" stroke-linejoin="round" stroke-dasharray="0 0.01"/>
<path d="M1066.96 414.363C1102.7 401.206 1119.83 399.118 1144.9 404.958C1204.95 418.946 1245.79 467.346 1315.63 492.44C1389.74 519.07 1457.45 506.004 1501.55 550.527C1603.52 653.478 1602.7 853.786 1526.58 893.088C1429.09 943.412 1309.47 698.597 1047.56 696.151C923.344 694.992 854.788 758.996 770.589 771.644C698.212 782.519 640.56 764.079 602.075 731.156C537.792 676.169 529.031 572.838 582.165 475.471C610.399 423.734 654.43 377.206 706.133 343.666C755.984 311.28 810.962 292.387 859.102 293.481C945.841 295.453 947.99 352.536 1066.96 414.363Z" stroke="#0091FF" stroke-width="2" stroke-miterlimit="10" stroke-linecap="round" stroke-linejoin="round" stroke-dasharray="0 0.01"/>
<path d="M1085.13 424.026C1119.49 413.977 1137.14 413.36 1161.67 419.536C1220.89 434.442 1261.97 478.176 1328.46 501.341C1399.2 525.985 1463.76 515.592 1507.7 559.353C1611.78 663.012 1612.99 864.619 1538.46 903.663C1443.73 953.289 1324.38 708.825 1062.2 704.698C940.56 702.785 871.372 762.862 789.609 776.413C718.848 788.145 662.252 773.061 622.491 740.575C555.478 685.825 544.318 578.304 596.235 479.237C624.019 426.224 668.301 378.957 720.263 345.214C770.547 312.516 826.204 293.688 874.921 295.649C962.667 298.85 963.826 359.213 1085.13 424.026Z" stroke="#0091FF" stroke-width="2" stroke-miterlimit="10" stroke-linecap="round" stroke-linejoin="round" stroke-dasharray="0 0.01"/>
<path d="M1102.38 433.7C1135.38 426.76 1153.54 427.617 1177.54 434.124C1235.92 449.958 1277.24 489.018 1340.39 510.252C1407.76 532.911 1469.18 525.189 1512.95 568.188C1619.15 672.532 1622.36 875.458 1549.43 914.255C1457.47 963.172 1338.39 719.108 1075.94 713.259C956.869 710.607 887.053 766.749 807.725 781.194C738.582 793.786 683.048 782.074 642 750.006C572.267 695.525 558.682 583.791 609.405 483.015C636.727 428.728 681.268 380.722 733.486 346.775C784.203 313.766 840.538 295.103 889.835 297.832C978.584 302.443 978.756 365.903 1102.38 433.7Z" stroke="#0091FF" stroke-width="2" stroke-miterlimit="10" stroke-linecap="round" stroke-linejoin="round" stroke-dasharray="0 0.01"/>
<path d="M1120.77 443.338C1152.39 439.507 1171.06 441.84 1194.53 448.68C1252.07 465.445 1293.64 499.819 1353.43 519.13C1417.44 539.801 1475.72 534.74 1519.32 576.989C1627.67 681.99 1632.86 886.262 1561.54 924.806C1472.33 973.017 1353.5 729.402 1090.81 721.782C974.298 718.406 903.859 770.606 826.964 785.94C759.441 799.4 704.983 791.066 662.634 759.398C590.183 705.22 574.161 589.244 623.694 486.759C650.546 431.2 695.356 382.45 747.832 348.299C798.982 314.977 855.997 296.484 905.875 299.976C995.623 306.002 994.809 372.558 1120.77 443.338Z" stroke="#0091FF" stroke-width="2" stroke-miterlimit="10" stroke-linecap="round" stroke-linejoin="round" stroke-dasharray="0 0.01"/>
<path d="M1138.24 453.022C1168.48 452.3 1187.67 456.113 1210.6 463.277C1267.29 480.987 1309.13 510.666 1365.57 528.052C1426.2 546.732 1481.35 544.332 1524.77 585.833C1635.29 691.46 1642.44 897.102 1572.72 935.405C1486.27 982.9 1367.71 739.794 1104.76 730.352C990.809 726.261 919.756 774.519 845.285 790.729C779.39 805.07 726.015 800.122 682.353 768.836C607.193 714.986 588.709 594.756 637.072 490.547C663.445 433.718 708.531 384.222 761.266 349.869C812.845 316.236 870.541 297.908 920.997 302.167C1011.75 309.607 1009.95 379.257 1138.24 453.022Z" stroke="#0091FF" stroke-width="2" stroke-miterlimit="10" stroke-linecap="round" stroke-linejoin="round" stroke-dasharray="0 0.01"/>
<path d="M1155.81 462.725C1184.69 465.112 1204.38 470.408 1226.78 477.896C1282.62 496.558 1324.72 521.526 1377.81 536.995C1435.08 553.676 1487.08 553.937 1530.33 594.7C1643.04 700.924 1652.13 907.962 1584.01 946.024C1500.31 992.802 1382 750.261 1118.81 738.94C1007.42 734.151 935.762 778.463 863.715 795.539C799.447 810.768 747.165 809.212 702.176 778.296C624.316 724.796 603.346 600.291 650.552 494.354C676.439 436.258 721.813 386.016 774.803 351.459C826.813 317.515 885.189 299.354 936.228 304.376C1027.98 313.229 1025.19 385.975 1155.81 462.725Z" stroke="#0091FF" stroke-width="2" stroke-miterlimit="10" stroke-linecap="round" stroke-linejoin="round" stroke-dasharray="0 0.01"/>
<path d="M1173.46 472.459C1199.59 482.547 1221.16 484.737 1243.04 492.546C1298.02 512.167 1340.42 532.323 1390.13 545.966C1444.06 560.552 1492.9 563.567 1535.97 603.595C1650.9 710.387 1661.89 918.844 1595.39 956.673C1514.44 1002.73 1396.37 760.817 1132.95 747.564C1024.11 742.085 951.858 782.447 882.227 800.379C819.595 816.509 768.413 818.342 722.083 787.787C641.537 734.663 618.058 605.867 664.116 498.192C689.509 438.83 735.176 387.841 788.422 353.079C840.868 318.822 899.921 300.829 951.538 306.619C1044.29 316.885 1028.54 416.511 1173.46 472.459Z" stroke="#0091FF" stroke-width="2" stroke-miterlimit="10" stroke-linecap="round" stroke-linejoin="round" stroke-dasharray="0 0.01"/>
<path d="M1192.22 482.225C1217.16 493.763 1239.06 499.098 1260.41 507.227C1314.52 527.818 1357.19 543.263 1403.56 554.97C1454.11 567.578 1499.82 573.222 1542.72 612.523C1659.88 719.85 1672.68 929.638 1607.87 967.356C1529.57 1012.54 1411.83 771.467 1148.19 756.212C1041.9 750.063 969.064 786.471 901.842 805.249C840.852 822.289 790.776 827.518 743.091 797.307C659.871 744.578 633.864 611.482 678.783 502.061C703.672 441.439 749.642 389.697 803.144 354.731C856.025 320.163 915.756 302.337 967.954 308.89C1061.71 320.571 1048.1 415.549 1192.22 482.225Z" stroke="#0091FF" stroke-width="2" stroke-miterlimit="10" stroke-linecap="round" stroke-linejoin="round" stroke-dasharray="0 0.01"/>
<path d="M1210.06 491.941C1234.09 505.049 1256.01 513.415 1276.85 521.857C1330.08 543.426 1373.03 554.153 1416.06 563.926C1463.24 574.555 1505.82 582.823 1548.55 621.4C1667.96 729.229 1682.64 940.55 1619.42 977.988C1543.91 1022.5 1426.36 782.134 1162.51 764.817C1058.75 758.006 985.355 790.456 920.532 810.071C861.19 828.031 812.229 836.658 763.179 806.777C677.292 754.464 648.731 617.059 692.528 505.884C716.905 444 763.186 391.504 816.945 356.334C870.255 321.455 930.666 303.794 983.445 311.115C1078.2 324.207 1067.64 414.243 1210.06 491.941Z" stroke="#0091FF" stroke-width="2" stroke-miterlimit="10" stroke-linecap="round" stroke-linejoin="round" stroke-dasharray="0 0.01"/>
<path d="M706.355 509.735C753.957 383.779 892.031 297.16 999.021 313.368C1094.78 327.876 1088.05 413.001 1227.98 501.691C1378.1 596.839 1458.39 544.839 1554.45 630.311C1676.15 738.605 1692.69 951.491 1631.06 988.651C1558.32 1032.5 1440.95 792.904 1176.91 773.45C982.166 759.101 888.359 877.824 783.347 816.282C694.813 764.397 663.676 622.676 706.355 509.735Z" stroke="#0091FF" stroke-width="2" stroke-miterlimit="10" stroke-linecap="round" stroke-linejoin="round" stroke-dasharray="0 0.01"/>
</g>
</g>
<defs>
<clipPath id="clip0_108_47">
<rect width="1440" height="923" fill="white"/>
</clipPath>
</defs>
</svg>