<svg width="34" height="33" viewBox="0 0 34 33" fill="none" xmlns="http://www.w3.org/2000/svg">
<path d="M26.5783 25.7824C28.123 24.2006 29.2489 22.2605 29.8544 20.1367H34V12.8682H29.8544C29.2496 10.7427 28.1237 8.80073 26.5783 7.21762L28.6547 3.63303L22.3453 0L20.2737 3.58459C18.1257 3.04428 15.8767 3.04428 13.7287 3.58459L11.6547 0L5.34529 3.63303L7.42171 7.21762C5.8763 8.80073 4.75039 10.7427 4.14557 12.8682H0V20.1342H4.14557C4.75039 22.2598 5.8763 24.2017 7.42171 25.7848L5.34286 29.367L11.6499 33H11.6571L13.7311 29.4203C15.8792 29.9606 18.1281 29.9606 20.2761 29.4203L22.3429 33H22.3477L28.6571 29.367L26.5807 25.7824H26.5783ZM24.2857 16.5012C24.2857 18.4283 23.5181 20.2764 22.1518 21.6391C20.7854 23.0017 18.9323 23.7673 17 23.7673C15.0677 23.7673 13.2146 23.0017 11.8482 21.6391C10.4819 20.2764 9.71429 18.4283 9.71429 16.5012C9.71429 14.5741 10.4819 12.726 11.8482 11.3633C13.2146 10.0007 15.0677 9.23516 17 9.23516C18.9323 9.23516 20.7854 10.0007 22.1518 11.3633C23.5181 12.726 24.2857 14.5741 24.2857 16.5012Z" fill="#F5841F"/>
</svg>
