<svg width="40" height="27" viewBox="0 0 40 27" fill="none" xmlns="http://www.w3.org/2000/svg">
<path d="M33.8837 2.2613C31.2605 1.19104 28.4853 0.430568 25.6315 0C25.2761 0.560385 24.8608 1.31411 24.5744 1.91373C21.4975 1.5103 18.4489 1.5103 15.4286 1.91373C15.1423 1.31424 14.7176 0.560385 14.3589 0C11.5023 0.430767 8.72477 1.19317 6.1003 2.26688C0.877801 9.1486 -0.537979 15.8592 0.169833 22.4748C3.63374 24.7304 6.99061 26.1006 10.2909 26.9973C11.1111 26.0137 11.8362 24.9724 12.4586 23.8842C11.2736 23.4908 10.1313 23.006 9.04514 22.4356C9.33097 22.2508 9.61007 22.0583 9.88202 21.8583C16.4636 24.5426 23.6148 24.5426 30.1179 21.8583C30.3911 22.057 30.6701 22.2495 30.9547 22.4356C29.8668 23.0075 28.7223 23.4933 27.535 23.887C28.1609 24.9797 28.8847 26.022 29.7026 27C33.0061 26.1035 36.3661 24.7333 39.83 22.4748C40.6606 14.8057 38.4112 8.15658 33.8837 2.26116V2.2613ZM13.3553 18.4063C11.3795 18.4063 9.7592 16.7979 9.7592 14.8394C9.7592 12.8808 11.345 11.2697 13.3553 11.2697C15.3658 11.2697 16.9859 12.878 16.9514 14.8394C16.9545 16.7979 15.3658 18.4063 13.3553 18.4063ZM26.6445 18.4063C24.6687 18.4063 23.0486 16.7979 23.0486 14.8394C23.0486 12.8808 24.6342 11.2697 26.6445 11.2697C28.655 11.2697 30.2751 12.878 30.2406 14.8394C30.2406 16.7979 28.655 18.4063 26.6445 18.4063Z" fill="#5865F2"/>
</svg>
