<?xml version="1.0" standalone="no"?>
<!DOCTYPE svg PUBLIC "-//W3C//DTD SVG 20010904//EN"
 "http://www.w3.org/TR/2001/REC-SVG-20010904/DTD/svg10.dtd">
<svg version="1.0" xmlns="http://www.w3.org/2000/svg"
 width="411.000000pt" height="93.000000pt" viewBox="0 0 411.000000 93.000000"
 preserveAspectRatio="xMidYMid meet">

<g transform="translate(0.000000,93.000000) scale(0.100000,-0.100000)"
fill="#000000" stroke="none">
<path d="M1373 842 c-40 -37 -73 -71 -73 -76 0 -4 32 -42 72 -82 l72 -75 -74
-74 -75 -75 78 -78 77 -77 -75 -75 c-41 -41 -75 -77 -75 -80 0 -3 34 -36 75
-73 l75 -68 155 148 155 147 -77 78 -78 78 75 75 75 75 -150 150 c-82 83 -152
150 -155 150 -3 -1 -38 -31 -77 -68z"/>
<path d="M998 663 c-14 -2 -29 -10 -31 -17 -9 -22 -3 -384 6 -393 5 -4 48 -8
95 -8 132 1 192 40 192 125 0 37 -23 85 -45 94 -15 5 -15 8 -1 28 33 47 15
122 -36 153 -30 18 -127 28 -180 18z m138 -108 c10 -25 -15 -55 -46 -55 -28 0
-30 2 -30 39 0 29 4 41 18 44 21 4 51 -10 58 -28z m5 -135 c45 -25 2 -96 -53
-88 -20 3 -23 10 -26 51 -3 47 -3 47 28 47 17 0 40 -5 51 -10z"/>
<path d="M2563 663 c-12 -2 -36 -20 -53 -39 -61 -69 -28 -154 81 -210 54 -27
75 -54 57 -72 -17 -17 -84 -15 -119 3 -32 17 -32 17 -53 -51 -8 -26 26 -44
101 -51 106 -11 173 37 173 124 0 52 -19 76 -100 123 -49 28 -70 47 -70 60 0
26 39 35 90 22 l40 -10 10 37 c14 49 14 48 -21 60 -31 11 -92 13 -136 4z"/>
<path d="M3488 663 l-28 -4 0 -205 0 -204 51 0 51 0 -6 55 c-5 55 -5 55 22 55
22 0 34 -11 61 -55 l35 -55 59 0 c65 0 65 -6 1 84 l-43 58 27 41 c53 79 30
170 -51 210 -38 19 -129 29 -179 20z m137 -108 c32 -31 31 -50 0 -81 -36 -36
-69 -29 -68 14 1 17 2 46 2 62 1 38 31 41 66 5z"/>
<path d="M3884 651 c-44 -27 -64 -59 -64 -102 0 -48 33 -88 109 -132 44 -26
56 -39 56 -58 0 -21 -5 -24 -42 -27 -24 -2 -55 4 -73 13 -33 17 -33 17 -54
-51 -8 -27 28 -45 110 -51 104 -9 164 36 164 122 0 51 -28 86 -98 123 -76 40
-88 55 -67 76 19 18 46 20 92 7 31 -9 33 -8 43 27 14 51 14 50 -27 61 -58 16
-115 13 -149 -8z"/>
<path d="M40 638 c5 -13 42 -106 83 -208 57 -139 79 -185 92 -185 13 0 28 28
57 103 22 57 43 100 48 95 4 -4 22 -46 40 -93 33 -84 56 -118 72 -102 5 5 46
98 92 208 l84 199 -40 3 c-22 2 -46 1 -52 -1 -7 -3 -30 -46 -51 -96 -21 -50
-40 -91 -44 -91 -3 0 -24 43 -45 95 -51 123 -62 124 -110 9 -20 -47 -36 -90
-36 -95 0 -29 -20 3 -54 86 l-38 95 -54 0 c-52 0 -53 -1 -44 -22z"/>
<path d="M640 455 l0 -205 125 0 125 0 0 40 0 40 -75 0 -75 0 0 50 0 50 61 0
60 0 -3 43 -3 42 -57 -1 -58 -1 0 33 0 34 75 0 75 0 0 40 0 40 -125 0 -125 0
0 -205z"/>
<path d="M1817 653 c-3 -5 -4 -21 -3 -38 2 -28 5 -30 49 -33 36 -2 47 -7 48
-20 0 -9 0 -83 0 -164 l0 -148 49 0 50 0 0 165 0 165 50 0 50 0 0 40 0 40
-144 0 c-80 0 -147 -3 -149 -7z"/>
<path d="M2170 455 l0 -205 125 0 125 0 0 40 0 40 -75 0 -75 0 0 34 c0 19 -3
41 -6 50 -5 14 4 16 60 16 l66 0 0 39 c0 36 -3 40 -30 46 -16 4 -34 3 -40 0
-6 -4 -22 -4 -35 -1 -19 5 -24 12 -22 34 2 26 4 27 77 32 l75 5 1 38 2 37
-124 0 -124 0 0 -205z"/>
<path d="M2780 620 l0 -40 50 0 50 0 0 -165 0 -165 50 0 50 0 0 165 0 165 50
0 50 0 0 40 0 40 -150 0 -150 0 0 -40z"/>
<path d="M3130 455 l0 -205 124 0 c134 0 140 3 132 55 -2 18 -12 20 -79 23
l-77 3 0 49 0 50 60 0 60 0 0 40 c0 25 -5 41 -12 41 -7 1 -29 3 -48 4 -19 1
-41 3 -47 3 -7 1 -13 15 -13 32 l0 30 75 0 75 0 0 40 0 40 -125 0 -125 0 0
-205z"/>
</g>
</svg>
